<?xml version="1.0" encoding="utf-8"?>
<!-- Generator: Adobe Illustrator 28.3.0, SVG Export Plug-In . SVG Version: 6.00 Build 0)  -->
<svg version="1.1" id="Layer_2" xmlns="http://www.w3.org/2000/svg" xmlns:xlink="http://www.w3.org/1999/xlink" x="0px" y="0px"
	 viewBox="0 0 1366 768" style="enable-background:new 0 0 1366 768;" xml:space="preserve">
<path d="M881.72,344.41l28.58-72.39c4.92,18.07,7.17,20.9,5.59,1.86c-3.98-2.66-3.49-9.93,0.33-8.39
	c3.88,1.56,12.62,2.67,16.76,2.03c8.89-1.37,15.12-5.07,20.33-8.69c18.56-12.43,24.91-40.52,11.63-58.94
	c9.68-8.19,18.7-22.06,17.33-36.16c-0.31-19.83-16.8-40.58-36.17-36.82c3.66-29.27-22.65-47.5-47.32-33.55
	c-5.04-31.73-56.94-27.76-58.81,4.14c-4.84-0.62-12.04,4.3-13.37,7.89c-4.56-4.8-14.61-6.88-23.93-5.09
	c-22.33,4.89-32.11,34.41-20.05,55.08c-1.79,7.19-1.64,20.22,0.13,27c-17.71,19.12-16.66,49.14,5.96,64.98
	c12.43,7.88,22.55,11.23,37.08,8.81c0.46,1,0.91,2.01,1.37,3.01c0.55,1.2-4.15,15.76-3.61,16.96c2.95,3.24,4.91-15.96,5.34-14.19
	c11.9,26.12,26.17,58.45,38.07,84.57L881.72,344.41z"/>
</svg>
